# Blender v3.0.0 OBJ File: 'untitled.blend'
# www.blender.org
mtllib untitled.mtl
o Cube
v -1.000000 1.000000 1.000000
v -1.000000 2.588277 1.000000
v -1.000000 1.000000 -1.000000
v -1.000000 2.666667 -1.000000
v 1.000000 1.000000 1.000000
v 1.000000 2.588277 1.000000
v 1.000000 1.000000 -1.000000
v 1.000000 2.666667 -1.000000
v -6.364033 7.000000 -8.691580
v -6.364033 5.000000 -8.691580
v -4.364033 5.000000 -8.691580
v -4.364033 7.000000 -8.691580
v -6.364033 7.000000 -11.191580
v -6.364033 5.000000 -11.191580
v -4.364033 5.000000 -11.191580
v -4.364033 7.000000 -11.191580
v -6.364033 9.000000 -8.691580
v -4.364033 9.000000 -8.691580
v -6.364033 9.000000 -11.191580
v -4.364033 9.000000 -11.191580
v -1.000000 11.000000 -0.941579
v 1.000000 11.000000 -0.941579
v -1.000000 12.999999 -0.941579
v 1.000000 13.000000 -0.941579
vt 0.984285 0.657849
vt 0.984285 0.577693
vt 0.917488 0.577693
vt 0.920630 0.657849
vt 0.304911 0.462118
vt 0.304911 0.870705
vt 0.373075 0.912879
vt 0.373075 0.504293
vt 0.917489 0.667116
vt 0.917488 0.747272
vt 0.981144 0.747272
vt 0.984285 0.667116
vt 0.869715 0.388709
vt 0.869715 0.468866
vt 0.949871 0.468866
vt 0.949871 0.388709
vt 0.949871 0.379443
vt 0.949871 0.299225
vt 0.869715 0.299225
vt 0.869715 0.379443
vt 0.139757 0.720137
vt 0.239952 0.720137
vt 0.239952 0.639981
vt 0.139757 0.639981
vt 0.388438 0.497192
vt 0.388438 0.911203
vt 0.456940 0.869581
vt 0.456940 0.455570
vt 0.615180 0.446664
vt 0.627307 0.038258
vt 0.554544 0.004634
vt 0.554544 0.418644
vt 0.709336 0.418644
vt 0.709336 0.004634
vt 0.636574 0.038258
vt 0.648701 0.446664
vt 0.908222 0.657849
vt 0.828065 0.657849
vt 0.828065 0.738005
vt 0.908222 0.738005
vt 0.798759 0.927624
vt 0.798759 0.827429
vt 0.718603 0.827429
vt 0.718603 0.927624
vt 0.828065 0.818161
vt 0.908222 0.818161
vt 0.818799 0.488270
vt 0.718604 0.488270
vt 0.718604 0.568426
vt 0.818799 0.568426
vt 0.219913 0.909755
vt 0.219913 0.809560
vt 0.139756 0.809560
vt 0.139756 0.909755
vt 0.718604 0.648582
vt 0.818799 0.648582
vt 0.709336 0.866287
vt 0.709336 0.455931
vt 0.641060 0.497924
vt 0.641060 0.908280
vt 0.139757 0.800293
vt 0.239952 0.800293
vt 0.462224 0.446303
vt 0.462224 0.035948
vt 0.388438 0.004633
vt 0.388438 0.414989
vt 0.554544 0.455931
vt 0.554544 0.866287
vt 0.622820 0.908279
vt 0.622820 0.497924
vt 0.545278 0.414989
vt 0.545278 0.004633
vt 0.471492 0.035948
vt 0.471492 0.446303
vn 1.0000 0.0000 0.0000
vn 0.0000 0.8872 0.4614
vn -1.0000 0.0000 0.0000
vn 0.0000 1.0000 0.0000
vn 0.0000 -0.9992 -0.0392
vn 0.0000 -0.8712 -0.4908
vn 0.8202 0.0000 -0.5720
vn -0.8202 0.0000 0.5720
vn 0.0000 0.0000 1.0000
vn 0.0000 -1.0000 0.0000
vn 0.0000 -0.8886 0.4586
vn -0.8223 0.0000 0.5691
vn 0.0000 0.8886 -0.4586
vn 0.8223 0.0000 -0.5691
usemtl Material.001
s off
f 1/1/1 3/2/1 4/3/1 2/4/1
f 7/5/2 11/6/2 10/7/2 3/8/2
f 7/9/3 5/10/3 6/11/3 8/12/3
f 3/13/4 1/14/4 5/15/4 7/16/4
f 8/17/5 6/18/5 2/19/5 4/20/5
f 12/21/3 16/22/3 15/23/3 11/24/3
f 4/25/6 9/26/6 12/27/6 8/28/6
f 3/29/7 10/30/7 9/31/7 4/32/7
f 8/33/8 12/34/8 11/35/8 7/36/8
f 14/37/9 15/38/9 16/39/9 13/40/9
f 11/41/4 15/42/4 14/43/4 10/44/4
f 16/39/9 20/45/9 19/46/9 13/40/9
f 10/47/1 14/48/1 13/49/1 9/50/1
f 17/51/10 19/52/10 20/53/10 18/54/10
f 13/49/1 19/55/1 17/56/1 9/50/1
f 18/57/11 24/58/11 23/59/11 17/60/11
f 12/21/3 18/61/3 20/62/3 16/22/3
f 12/63/12 22/64/12 24/65/12 18/66/12
f 9/67/13 21/68/13 22/69/13 12/70/13
f 17/71/14 23/72/14 21/73/14 9/74/14
o Cube.001
v -0.999999 13.000000 -0.941579
v -0.999999 11.000000 -0.941579
v -1.000001 12.588278 0.999999
v -1.000001 10.921611 1.000000
v 1.000001 13.000000 -0.941579
v 1.000001 11.000000 -0.941579
v 0.999999 12.588278 1.000001
v 0.999999 10.921611 1.000001
v 5.000000 6.588279 8.749999
v 5.000000 8.588279 8.749998
v 7.000000 8.588280 8.750000
v 7.000000 6.588279 8.750001
v 4.999999 6.588280 11.249999
v 4.999998 8.588280 11.249998
v 6.999998 8.588280 11.250000
v 6.999999 6.588280 11.250001
v 5.000000 4.588280 8.750000
v 7.000000 4.588280 8.750002
v 4.999999 4.588280 11.250000
v 6.999999 4.588281 11.250002
v -0.999999 2.588277 0.941582
v 1.000001 2.588277 0.941583
v -0.999999 1.000000 1.000000
v 1.000001 1.000000 1.000000
vt 0.947530 0.206660
vt 0.869715 0.223161
vt 0.869715 0.289958
vt 0.947530 0.286816
vt 0.466207 0.501002
vt 0.466207 0.925267
vt 0.532245 0.879835
vt 0.532245 0.455570
vt 0.869715 0.180892
vt 0.947530 0.197393
vt 0.947530 0.117237
vt 0.869715 0.114096
vt 0.897449 0.907584
vt 0.976994 0.907584
vt 0.976994 0.827428
vt 0.897449 0.827428
vt 0.995367 0.488270
vt 0.917488 0.488270
vt 0.917488 0.568426
vt 0.995367 0.568426
vt 0.139757 0.550557
vt 0.239952 0.550557
vt 0.239952 0.470401
vt 0.139757 0.470401
vt 0.718603 0.004633
vt 0.718603 0.434124
vt 0.785018 0.479003
vt 0.785018 0.049512
vt 0.200848 0.461134
vt 0.213067 0.037045
vt 0.139756 0.004634
vt 0.139756 0.434124
vt 0.295644 0.434124
vt 0.295644 0.004634
vt 0.222334 0.037045
vt 0.234552 0.461134
vt 0.908222 0.488270
vt 0.828065 0.488270
vt 0.828065 0.568426
vt 0.908222 0.568426
vt 0.888183 0.927624
vt 0.888183 0.827429
vt 0.808026 0.827429
vt 0.808026 0.927624
vt 0.828065 0.648582
vt 0.908222 0.648582
vt 0.818799 0.657849
vt 0.718604 0.657849
vt 0.718604 0.738005
vt 0.818799 0.738005
vt 0.949871 0.104829
vt 0.949871 0.004634
vt 0.869715 0.004634
vt 0.869715 0.104829
vt 0.718604 0.818161
vt 0.818799 0.818161
vt 0.070221 0.930462
vt 0.070221 0.512153
vt 0.004633 0.466075
vt 0.004634 0.884383
vt 0.139757 0.630713
vt 0.239952 0.630713
vt 0.060862 0.004633
vt 0.004634 0.426887
vt 0.060862 0.456808
vt 0.130489 0.044336
vt 0.794285 0.049882
vt 0.794285 0.475863
vt 0.860448 0.430615
vt 0.860448 0.004634
vt 0.304912 0.034798
vt 0.319486 0.452851
vt 0.379170 0.430614
vt 0.379170 0.004633
vn 1.0000 0.0000 0.0000
vn 0.0000 -0.8886 -0.4586
vn -1.0000 -0.0000 -0.0000
vn 0.0000 -0.9782 -0.2074
vn -0.0000 0.9992 0.0403
vn -0.0000 0.8728 0.4880
vn 0.7907 -0.0000 -0.6122
vn -0.7907 0.0000 0.6122
vn 0.0000 -0.0000 -1.0000
vn 0.0000 -1.0000 0.0000
vn -0.0000 1.0000 -0.0000
vn 0.0000 0.9075 -0.4202
vn -0.7941 0.0099 0.6077
vn -0.0000 -0.8900 0.4559
vn 0.7941 -0.0099 -0.6077
usemtl Material.002
s off
f 25/75/15 27/76/15 28/77/15 26/78/15
f 31/79/16 35/80/16 34/81/16 27/82/16
f 31/83/17 29/84/17 30/85/17 32/86/17
f 27/87/18 25/88/18 29/89/18 31/90/18
f 32/91/19 30/92/19 26/93/19 28/94/19
f 36/95/17 40/96/17 39/97/17 35/98/17
f 28/99/20 33/100/20 36/101/20 32/102/20
f 27/103/21 34/104/21 33/105/21 28/106/21
f 32/107/22 36/108/22 35/109/22 31/110/22
f 38/111/23 39/112/23 40/113/23 37/114/23
f 35/115/24 39/116/24 38/117/24 34/118/24
f 40/113/23 44/119/23 43/120/23 37/114/23
f 34/121/15 38/122/15 37/123/15 33/124/15
f 41/125/25 43/126/25 44/127/25 42/128/25
f 37/123/15 43/129/15 41/130/15 33/124/15
f 42/131/26 48/132/26 47/133/26 41/134/26
f 36/95/17 42/135/17 44/136/17 40/96/17
f 36/137/27 46/138/27 48/139/27 42/140/27
f 33/141/28 45/142/28 46/143/28 36/144/28
f 41/145/29 47/146/29 45/147/29 33/148/29
